<?xml version="1.0" standalone="no"?><!DOCTYPE svg PUBLIC "-//W3C//DTD SVG 1.1//EN" "http://www.w3.org/Graphics/SVG/1.1/DTD/svg11.dtd"><svg t="1646586234723" class="icon" viewBox="0 0 1027 1024" version="1.1" xmlns="http://www.w3.org/2000/svg" p-id="3121" xmlns:xlink="http://www.w3.org/1999/xlink" width="200.5859375" height="200"><defs><style type="text/css"></style></defs><path d="M512 0C229.376 0 0 229.376 0 512s229.376 512 512 512 512-229.376 512-512S794.624 0 512 0z m0 963.584c-249.344 0-451.584-202.24-451.584-451.584S262.656 60.416 512 60.416s451.584 202.24 451.584 451.584-202.24 451.584-451.584 451.584z" p-id="3122"></path><path d="M590.336 347.136c-11.264-11.264-29.696-11.264-40.96 0s-11.264 29.696 0 40.96l95.232 95.232H310.272c-15.872 0-28.672 12.8-28.672 28.672 0 15.872 12.8 28.672 28.672 28.672h334.336l-95.232 95.232c-5.632 5.632-8.704 12.8-8.704 20.48 0 7.168 3.072 14.848 8.704 20.48 11.264 11.264 29.696 11.264 40.96 0l144.384-144.384c11.264-11.264 11.264-29.696 0-40.96l-144.384-144.384z" p-id="3123"></path></svg>