<svg viewBox="0 0 835.51 717.91" xmlns:xlink="http://www.w3.org/1999/xlink" xmlns="http://www.w3.org/2000/svg"><defs><style>.cls-1{fill:none;}.cls-12,.cls-2{fill:#a5d7d3;}.cls-2{opacity:0.8;}.cls-3{fill:#007e97;}.cls-4{fill:#009e8f;}.cls-5{fill:#d8d4ce;}.cls-6{fill:#f9c478;}.cls-7{fill:#515150;}.cls-8{fill:#f59a00;}.cls-9{clip-path:url(#clip-path);}.cls-10{fill:#54a8ba;}.cls-11{clip-path:url(#clip-path-2);}.cls-13{fill:#fde3d8;}.cls-14{fill:#005560;}.cls-15{fill:#fff;}.cls-16{fill:#cecec8;}.cls-17{fill:#eaeaea;}.cls-18{fill:#262223;}.cls-19{fill:#422107;}.cls-20{fill:#a3413e;}</style><clipPath id="clip-path"><path d="M191,470.87l6.27,4.52q-10.07,12.89-20.15,25.76c-1.47,1.88-3,3.85-3.44,6.19-.93,4.79,2.86,9.27,7,11.8s9,4.07,12.58,7.41c-2.2,5-.59,11.15,2.94,15.35s8.67,6.76,13.91,8.41a56.2,56.2,0,0,0,26.39,1.8,15.07,15.07,0,0,1,5.66-.34c2,.43,3.73,1.78,5.51,2.86,9.24,5.62,21.07,4.25,31.48,1.35,32.15-9,60-30.78,79-58.19,5.38-7.75,10.18-16.1,12.36-25.28s1.65-18.55.64-27.81c-.83-7.66-2.07-15.48-5.88-22.17-3.46-6.11-8.85-10.9-14.54-15A108.67,108.67,0,0,0,274.85,388c-3.65.45-7.39,1.12-10.49,3.09-3.29,2.09-5.56,5.43-7.58,8.76-6.77,11.12-12,23.34-20.84,32.92C222.58,447.26,202.1,454.54,191,470.87Z" class="cls-1"></path></clipPath><clipPath id="clip-path-2"><path d="M405.19,542.18a118.2,118.2,0,0,0,5.6-31c3-66.87-50.24-123.59-118.92-126.67S165.08,433.11,162.08,500a118.27,118.27,0,0,0,2.83,31.56c33.28,27.73,74.67,38.5,118.56,40.13C326.21,573.94,369.19,566.92,405.19,542.18Z" class="cls-2"></path></clipPath></defs><title>designing</title><g id="Layer_2"><g id="Layer_1-2"><g id="designing"><path d="M552.29,338.35c15.39-1.09-23.57-39.82-77-64.31s-161.85,4.78-192.74,84.47,57.28,97.64,57.28,97.64c40.52,5,96.19-7.25,138.39-3.16s58.14,20.47,72.54,18.22-32-54.58-32-54.58,43.53,24.88,57,21.47-46-56.67-46-56.67,41.19,14.91,56,8.33S509.89,336.44,504.57,335,536.91,339.44,552.29,338.35Z" class="cls-3"></path><path d="M452.44,324.94c-1.69-14.43-62.59.74-70.83,1.38s3.54-6.18,13.21-17.55-23.75-5.24-57,19.77-34.46,54.61-34.46,54.61c1.72,41.37,63.29,41.5,94.5,45.17s70.18,10.28,96.69,8.41S468.08,391,468.08,391s13.58-6.76,32-16.06-69.29-23.72-69.29-23.72S454.14,339.36,452.44,324.94Z" class="cls-2"></path><path d="M47.13,494c-6.65.89-50.82-13.92-46.88-5.29S45.44,538,114,553.91s181.21,23.84,244.22-55.82c61.26-77.44,59.65-214.4-57.7-246.9-7-1.95-14.17-3.38-21.45-3-19.77,1.05-59.4,7-80.73,36.93C169.2,326,145.76,490.37,37.82,474.92,37.82,474.92,53.77,493.09,47.13,494Z" class="cls-4"></path><path d="M560.39,452.12l47.87,15.78s1.57-3.15,3.23-4.19-32.67-42.45-32.67-42.45Z" class="cls-5"></path><rect transform="translate(-60.05 322.93) rotate(-49.85)" rx="20.28" height="678.35" width="41.03" y="-113.11" x="296.89" class="cls-6"></rect><polygon points="608.26 467.9 618.6 472.1 611.49 463.71 608.26 467.9" class="cls-7"></polygon><path d="M56.14,524.81C50.89,522.47,44,521,38.93,522.53A242.61,242.61,0,0,0,114,553.91c68.6,15.92,181.21,23.84,244.22-55.82,61.26-77.44,59.65-214.4-57.7-246.9-7-1.95-14.17-3.38-21.45-3-19.77,1.05-59.4,7-80.73,36.93-6.3,8.85-12.34,23.47-19,40.79,27,9.47,49.4,37,78.51,44,20.75,4.94,42.3-1.23,63.57-2.94a152.05,152.05,0,0,1,42.2,2.49c6.49,1.31,13.41,3.38,17.31,8.72,3.61,5,3.76,11.6,3.38,17.73-1.69,26.82-10.8,52.79-23.61,76.41-5.18,9.57-11,18.85-18.25,27-19.39,21.8-47.81,34-76.59,38.77s-58.23,2.78-87.28.14l6.46,11a129.59,129.59,0,0,1-67.66-10.38,25.49,25.49,0,0,1,1.47,10.53C96.33,547.57,76.76,534,56.14,524.81Z" class="cls-4"></path><path d="M452.32,235.34c-13.73,50-70.81,75.92-116.75,74-65.23-2.76-132-62.76-122-125.28,9.36-58.48,82.46-97.77,144.71-83.51C417.92,114.19,468.28,177.17,452.32,235.34Z" class="cls-4"></path><path d="M222.48,604.24,207,595.11l-7.18-32.92a8.2,8.2,0,0,0-16,3.5l6.91,31.69A7.61,7.61,0,0,0,189,599.5l-8.49,16.22a7.65,7.65,0,1,0,13.56,7.1l2.47-4.7.73,3.35a7.65,7.65,0,1,0,14.95-3.26l-.56-2.56,3,1.77a7.65,7.65,0,1,0,7.78-13.18Z" class="cls-8"></path><path d="M318.07,583.39l-15.49-9.14-7.18-32.91a8.2,8.2,0,1,0-16,3.49l6.92,31.7a7.44,7.44,0,0,0-1.67,2.12l-8.5,16.22A7.66,7.66,0,0,0,289.7,602l2.46-4.7.73,3.35a7.66,7.66,0,0,0,15-3.27l-.56-2.55,3,1.77a7.65,7.65,0,1,0,7.78-13.18Z" class="cls-8"></path><g class="cls-9"><path d="M405.19,542.18a118.2,118.2,0,0,0,5.6-31c3-66.87-50.24-123.59-118.92-126.67S165.08,433.11,162.08,500a118.27,118.27,0,0,0,2.83,31.56c33.28,27.73,74.67,38.5,118.56,40.13C326.21,573.94,369.19,566.92,405.19,542.18Z" class="cls-10"></path><path d="M405.19,542.18a118.2,118.2,0,0,0,5.6-31c3-66.87-50.24-123.59-118.92-126.67S165.08,433.11,162.08,500a118.27,118.27,0,0,0,2.83,31.56c33.28,27.73,74.67,38.5,118.56,40.13C326.21,573.94,369.19,566.92,405.19,542.18Z" class="cls-2"></path><g class="cls-11"><polygon points="230.7 426.99 205.55 425.86 217.83 439.29 230.7 426.99" class="cls-3"></polygon><polygon points="258.79 428.25 233.65 427.12 245.92 440.55 258.79 428.25" class="cls-3"></polygon><polygon points="286.89 429.51 261.75 428.38 274.02 441.81 286.89 429.51" class="cls-3"></polygon><polygon points="314.98 430.77 289.84 429.64 302.11 443.07 314.98 430.77" class="cls-3"></polygon><polygon points="343.08 432.03 317.93 430.9 330.2 444.33 343.08 432.03" class="cls-3"></polygon><polygon points="371.18 433.29 346.03 432.16 358.3 445.59 371.18 433.29" class="cls-3"></polygon><polygon points="399.27 434.55 374.12 433.42 386.39 446.85 399.27 434.55" class="cls-3"></polygon><polygon points="202.6 425.73 177.46 424.6 189.73 438.03 202.6 425.73" class="cls-3"></polygon><polygon points="245.5 410.81 220.36 409.69 232.63 423.11 245.5 410.81" class="cls-3"></polygon><polygon points="273.59 412.07 248.45 410.94 260.72 424.37 273.59 412.07" class="cls-3"></polygon><polygon points="301.69 413.33 276.55 412.2 288.82 425.63 301.69 413.33" class="cls-3"></polygon><polygon points="329.78 414.59 304.64 413.46 316.91 426.89 329.78 414.59" class="cls-3"></polygon><polygon points="357.88 415.85 332.73 414.73 345 428.15 357.88 415.85" class="cls-3"></polygon><polygon points="385.97 417.11 360.83 415.99 373.1 429.41 385.97 417.11" class="cls-3"></polygon><polygon points="217.4 409.55 192.26 408.42 204.53 421.85 217.4 409.55" class="cls-3"></polygon><polygon points="442.16 419.63 417.02 418.51 429.29 431.93 442.16 419.63" class="cls-3"></polygon><polygon points="218.91 375.94 193.77 374.81 206.04 388.24 218.91 375.94" class="cls-3"></polygon><polygon points="247.01 377.2 221.86 376.07 234.13 389.5 247.01 377.2" class="cls-3"></polygon><polygon points="275.1 378.46 249.96 377.34 262.23 390.76 275.1 378.46" class="cls-3"></polygon><polygon points="303.2 379.72 278.05 378.6 290.32 392.02 303.2 379.72" class="cls-3"></polygon><polygon points="331.29 380.98 306.15 379.86 318.42 393.28 331.29 380.98" class="cls-3"></polygon><polygon points="359.39 382.24 334.24 381.12 346.52 394.54 359.39 382.24" class="cls-3"></polygon><polygon points="387.48 383.5 362.34 382.38 374.61 395.8 387.48 383.5" class="cls-3"></polygon><polygon points="190.81 374.68 165.67 373.56 177.94 386.98 190.81 374.68" class="cls-3"></polygon><polygon points="443.67 386.02 418.53 384.9 430.8 398.32 443.67 386.02" class="cls-3"></polygon><polygon points="415.57 384.76 390.43 383.64 402.71 397.06 415.57 384.76" class="cls-3"></polygon><polygon points="232.21 393.38 207.06 392.25 219.33 405.67 232.21 393.38" class="cls-3"></polygon><polygon points="260.3 394.64 235.16 393.51 247.43 406.93 260.3 394.64" class="cls-3"></polygon><polygon points="288.4 395.9 263.25 394.77 275.52 408.19 288.4 395.9" class="cls-3"></polygon><polygon points="316.49 397.16 291.35 396.03 303.62 409.45 316.49 397.16" class="cls-3"></polygon><polygon points="344.58 398.42 319.44 397.29 331.71 410.71 344.58 398.42" class="cls-3"></polygon><polygon points="372.68 399.68 347.54 398.55 359.81 411.98 372.68 399.68" class="cls-3"></polygon><polygon points="204.11 392.12 178.97 390.99 191.24 404.41 204.11 392.12" class="cls-3"></polygon><polygon points="456.97 403.46 431.82 402.33 444.1 415.76 456.97 403.46" class="cls-3"></polygon><polygon points="428.87 402.2 403.73 401.07 416 414.5 428.87 402.2" class="cls-3"></polygon><polygon points="226.21 494.14 201.06 493.02 213.33 506.44 226.21 494.14" class="cls-3"></polygon><polygon points="254.3 495.4 229.15 494.28 241.43 507.7 254.3 495.4" class="cls-3"></polygon><polygon points="282.39 496.67 257.25 495.54 269.52 508.96 282.39 496.67" class="cls-3"></polygon><polygon points="310.49 497.93 285.35 496.8 297.62 510.22 310.49 497.93" class="cls-3"></polygon><polygon points="338.58 499.19 313.44 498.06 325.71 511.48 338.58 499.19" class="cls-3"></polygon><polygon points="366.68 500.45 341.54 499.32 353.81 512.74 366.68 500.45" class="cls-3"></polygon><polygon points="394.78 501.71 369.63 500.58 381.9 514 394.78 501.71" class="cls-3"></polygon><polygon points="198.11 492.88 172.97 491.76 185.23 505.18 198.11 492.88" class="cls-3"></polygon><polygon points="170.01 491.62 144.87 490.5 157.14 503.92 170.01 491.62" class="cls-3"></polygon><polygon points="450.96 504.23 425.82 503.1 438.09 516.52 450.96 504.23" class="cls-3"></polygon><polygon points="422.87 502.97 397.73 501.84 410 515.26 422.87 502.97" class="cls-3"></polygon><polygon points="158.2 474.25 133.05 473.13 145.32 486.55 158.2 474.25" class="cls-3"></polygon><polygon points="241.01 477.97 215.86 476.84 228.13 490.26 241.01 477.97" class="cls-3"></polygon><polygon points="269.1 479.23 243.96 478.1 256.23 491.52 269.1 479.23" class="cls-3"></polygon><polygon points="297.2 480.49 272.05 479.36 284.33 492.79 297.2 480.49" class="cls-3"></polygon><polygon points="325.3 481.75 300.15 480.62 312.42 494.05 325.3 481.75" class="cls-3"></polygon><polygon points="353.38 483.01 328.24 481.88 340.51 495.31 353.38 483.01" class="cls-3"></polygon><polygon points="381.48 484.27 356.34 483.14 368.61 496.57 381.48 484.27" class="cls-3"></polygon><polygon points="409.58 485.53 384.44 484.4 396.7 497.83 409.58 485.53" class="cls-3"></polygon><polygon points="212.91 476.71 187.77 475.58 200.04 489 212.91 476.71" class="cls-3"></polygon><polygon points="184.82 475.45 159.67 474.32 171.94 487.74 184.82 475.45" class="cls-3"></polygon><polygon points="437.68 486.79 412.53 485.66 424.8 499.09 437.68 486.79" class="cls-3"></polygon><polygon points="158.23 440.57 133.09 439.45 145.36 452.87 158.23 440.57" class="cls-3"></polygon><polygon points="214.42 443.1 189.28 441.97 201.55 455.39 214.42 443.1" class="cls-3"></polygon><polygon points="242.51 444.36 217.37 443.23 229.64 456.65 242.51 444.36" class="cls-3"></polygon><polygon points="270.61 445.62 245.47 444.49 257.74 457.91 270.61 445.62" class="cls-3"></polygon><polygon points="298.7 446.88 273.56 445.75 285.83 459.18 298.7 446.88" class="cls-3"></polygon><polygon points="326.8 448.14 301.66 447.01 313.93 460.44 326.8 448.14" class="cls-3"></polygon><polygon points="354.9 449.4 329.75 448.27 342.03 461.69 354.9 449.4" class="cls-3"></polygon><polygon points="382.99 450.66 357.85 449.53 370.12 462.96 382.99 450.66" class="cls-3"></polygon><polygon points="186.32 441.83 161.18 440.71 173.45 454.13 186.32 441.83" class="cls-3"></polygon><polygon points="411.09 451.92 385.94 450.79 398.21 464.22 411.09 451.92" class="cls-3"></polygon><polygon points="227.72 460.53 202.57 459.4 214.84 472.83 227.72 460.53" class="cls-3"></polygon><polygon points="255.81 461.79 230.66 460.66 242.93 474.09 255.81 461.79" class="cls-3"></polygon><polygon points="283.9 463.05 258.76 461.92 271.03 475.35 283.9 463.05" class="cls-3"></polygon><polygon points="312 464.31 286.86 463.18 299.13 476.61 312 464.31" class="cls-3"></polygon><polygon points="340.09 465.57 314.95 464.44 327.22 477.87 340.09 465.57" class="cls-3"></polygon><polygon points="368.19 466.83 343.04 465.7 355.32 479.13 368.19 466.83" class="cls-3"></polygon><polygon points="396.29 468.09 371.14 466.96 383.41 480.39 396.29 468.09" class="cls-3"></polygon><polygon points="199.62 459.27 174.47 458.14 186.74 471.57 199.62 459.27" class="cls-3"></polygon><polygon points="171.52 458.01 146.38 456.88 158.65 470.31 171.52 458.01" class="cls-3"></polygon><polygon points="452.47 470.61 427.33 469.49 439.6 482.91 452.47 470.61" class="cls-3"></polygon><polygon points="424.38 469.35 399.24 468.23 411.51 481.65 424.38 469.35" class="cls-3"></polygon><polygon points="195.1 560.11 169.95 558.98 182.22 572.4 195.1 560.11" class="cls-3"></polygon><polygon points="223.19 561.37 198.04 560.24 210.32 573.66 223.19 561.37" class="cls-3"></polygon><polygon points="251.29 562.63 226.14 561.5 238.41 574.92 251.29 562.63" class="cls-3"></polygon><polygon points="279.38 563.89 254.24 562.76 266.51 576.18 279.38 563.89" class="cls-3"></polygon><polygon points="307.48 565.15 282.33 564.02 294.6 577.44 307.48 565.15" class="cls-3"></polygon><polygon points="335.57 566.41 310.43 565.28 322.7 578.7 335.57 566.41" class="cls-3"></polygon><polygon points="363.67 567.67 338.52 566.54 350.79 579.96 363.67 567.67" class="cls-3"></polygon><polygon points="391.76 568.93 366.62 567.8 378.89 581.22 391.76 568.93" class="cls-3"></polygon><polygon points="433.18 553.94 408.04 552.82 420.31 566.24 433.18 553.94" class="cls-3"></polygon><polygon points="209.9 543.93 184.76 542.8 197.02 556.23 209.9 543.93" class="cls-3"></polygon><polygon points="237.99 545.19 212.85 544.06 225.12 557.49 237.99 545.19" class="cls-3"></polygon><polygon points="266.09 546.45 240.94 545.32 253.22 558.75 266.09 546.45" class="cls-3"></polygon><polygon points="294.18 547.71 269.04 546.58 281.31 560.01 294.18 547.71" class="cls-3"></polygon><polygon points="322.28 548.97 297.13 547.84 309.41 561.27 322.28 548.97" class="cls-3"></polygon><polygon points="350.37 550.23 325.23 549.1 337.5 562.53 350.37 550.23" class="cls-3"></polygon><polygon points="378.47 551.49 353.33 550.36 365.6 563.79 378.47 551.49" class="cls-3"></polygon><polygon points="181.8 542.67 156.66 541.54 168.93 554.97 181.8 542.67" class="cls-3"></polygon><polygon points="153.71 541.41 128.56 540.28 140.84 553.71 153.71 541.41" class="cls-3"></polygon><polygon points="406.57 552.75 381.42 551.62 393.69 565.05 406.57 552.75" class="cls-3"></polygon><polygon points="435.53 520.37 410.38 519.24 422.65 532.67 435.53 520.37" class="cls-3"></polygon><polygon points="183.31 509.06 158.17 507.93 170.44 521.36 183.31 509.06" class="cls-3"></polygon><polygon points="211.41 510.32 186.26 509.19 198.53 522.62 211.41 510.32" class="cls-3"></polygon><polygon points="239.5 511.58 214.36 510.45 226.63 523.88 239.5 511.58" class="cls-3"></polygon><polygon points="267.6 512.84 242.45 511.71 254.72 525.14 267.6 512.84" class="cls-3"></polygon><polygon points="295.69 514.1 270.55 512.97 282.82 526.4 295.69 514.1" class="cls-3"></polygon><polygon points="323.79 515.36 298.64 514.23 310.92 527.66 323.79 515.36" class="cls-3"></polygon><polygon points="351.88 516.62 326.74 515.49 339.01 528.92 351.88 516.62" class="cls-3"></polygon><polygon points="155.22 507.8 130.07 506.67 142.34 520.1 155.22 507.8" class="cls-3"></polygon><polygon points="408.07 519.14 382.93 518.01 395.2 531.44 408.07 519.14" class="cls-3"></polygon><polygon points="379.98 517.88 354.83 516.75 367.11 530.18 379.98 517.88" class="cls-3"></polygon><polygon points="196.6 526.49 171.46 525.36 183.73 538.79 196.6 526.49" class="cls-3"></polygon><polygon points="224.7 527.75 199.55 526.63 211.82 540.05 224.7 527.75" class="cls-3"></polygon><polygon points="252.79 529.01 227.65 527.88 239.92 541.31 252.79 529.01" class="cls-3"></polygon><polygon points="280.89 530.27 255.74 529.14 268.02 542.57 280.89 530.27" class="cls-3"></polygon><polygon points="308.98 531.53 283.84 530.41 296.11 543.83 308.98 531.53" class="cls-3"></polygon><polygon points="337.08 532.79 311.93 531.67 324.21 545.09 337.08 532.79" class="cls-3"></polygon><polygon points="365.18 534.05 340.03 532.93 352.3 546.35 365.18 534.05" class="cls-3"></polygon><polygon points="168.51 525.23 143.36 524.1 155.63 537.53 168.51 525.23" class="cls-3"></polygon><polygon points="447.98 537.77 422.84 536.64 435.11 550.07 447.98 537.77" class="cls-3"></polygon><polygon points="421.36 536.58 396.22 535.45 408.49 548.87 421.36 536.58" class="cls-3"></polygon><polygon points="393.27 535.31 368.13 534.19 380.4 547.61 393.27 535.31" class="cls-3"></polygon></g></g><path d="M434.83,153.88l-1.62-2a28.91,28.91,0,0,0-3-3.42,64.94,64.94,0,0,0-6.69-6.17L420,139.44c-1.22-.9-2.53-1.65-3.79-2.47-10.2-6.47-21.46-10.68-32.75-13.78-22.66-6.12-45.57-8.81-67.8-13.32S271.49,99,254.11,85.5a81.66,81.66,0,0,1-21.32-24.6A99.5,99.5,0,0,1,226,46.28a94.18,94.18,0,0,0,13.89,10.8c2.49,1.56,5,3.13,7.58,4.48a63.66,63.66,0,0,0,8.09,3.32c5.49,1.89,10.64,4.47,15.93,6.77l8.36,3.65-2.47-9.77a63.15,63.15,0,0,1-1.34-6.79c-.37-2.27-.8-4.57-1-6.93s-.32-4.56-.36-6.89A41,41,0,0,0,282,48a88,88,0,0,0,15,3.43c5,.73,9.83,1.09,14.54,1.69a121.63,121.63,0,0,1,13.72,2.48,195.32,195.32,0,0,1,52.31,21.21c16.26,9.54,31.42,21.34,42.6,36.14a74.1,74.1,0,0,1,12.44,24.29c.65,2.17,1.05,4.4,1.49,6.61a56.33,56.33,0,0,1,.66,6.74Z" class="cls-4"></path><circle r="59.47" cy="204.89" cx="386.78" class="cls-12"></circle><path d="M336.12,236.05s-38.91-69.24-32.37-97.73S405.8,148.53,405.8,148.53Z" class="cls-12"></path><circle r="45.24" cy="204.89" cx="386.78" class="cls-13"></circle><circle r="30.36" cy="207.52" cx="396.82" class="cls-14"></circle><path d="M422.5,201.36a10.75,10.75,0,1,0-11.33,10.13A10.75,10.75,0,0,0,422.5,201.36Z" class="cls-15"></path><path d="M390.78,219.22a6,6,0,1,0-6.33,5.66A6,6,0,0,0,390.78,219.22Z" class="cls-15"></path><path d="M497,348.72c17.49-3.72-33.44-41.93-98.66-61.5s-185,31.41-207.72,127.83S272,518,272,518c47.3-.81,109.25-23.72,158.35-25.79s70,14.18,86.19,9.3S471,443.94,471,443.94s54,21.59,68.82,15.53S478,401.79,478,401.79s49.67,10.52,65.61.59S448,353.31,441.66,352.48,479.5,352.43,497,348.72Z" class="cls-3"></path><path d="M380.22,349.31C376,333,308.49,360.18,299.13,362.24s3.08-7.66,12.36-22.26-28.11-2.21-62.25,31.82S218.43,440,218.43,440c8.6,47.22,79.3,37.5,115.71,36.71s82.21.56,112.34-5.83-37.74-48.26-37.74-48.26,14.51-9.93,34.2-23.57-83.34-16.13-83.34-16.13S384.48,365.6,380.22,349.31Z" class="cls-2"></path><path d="M447.32,248.32s9.46-25.6,7.72-38c6.49,4.95,26.74,17.93,13.83,60.73C447.67,249.83,447.32,248.32,447.32,248.32Z" class="cls-8"></path><polygon points="574.42 690.92 669.73 238.22 800.19 247.89 697.55 717.91 574.42 690.92" class="cls-16"></polygon><polygon points="754.64 456.49 835.51 717.91 811.91 717.91 748.63 484 754.64 456.49" class="cls-16"></polygon><polygon points="686.36 271.01 768.72 277.67 687.31 683.95 600.18 665.62 686.36 271.01" class="cls-17"></polygon><path d="M723.72,335.28l13.79,5.24s-20.18,8.4-27.71,25.86c-11.23,27.9-10.7,45.69-14.75,86-1.68,30-7.27,66.34-17.19,81.27s-23.63,25.5-28.07,24.42c10.05-6.5,25.34-20.42,29.94-34.15s6.72-28.09,6.64-32.67c-2.1,3.14-5.93,13.22-13.37,21.62s-26.44,20.91-34.23,18.26c6-1.46,14.36-4.26,21.06-9.91,6.89-6.18,23-18.27,25.94-46s2-46.87,3.91-64.66,5.43-31.91,6.05-35.93c-3.16.32-18,5.91-22.77-.75,3.19-1.22,17.53-.63,22.8-6.52s9.18-16.21,14.78-21.37S723.72,335.28,723.72,335.28Z" class="cls-18"></path><path d="M683,522.64s5.3,9.41,5.93,15.8c1.1,6.26-3.29,17.46-4.33,17.27.63-3,2.56-12.07,1.67-16.66s-5-12.91-5-12.91Z" class="cls-19"></path><path d="M665.91,396.37s8.43-1.89,11.23-4.92,4-8.13,2.61-9.76-7.5-.93-10.19,3.05S665.91,396.37,665.91,396.37Z" class="cls-20"></path><path d="M649.46,551.27s6.25-6,7.08-10-.78-9-2.79-9.7-6.91,3.06-7.16,7.85S649.46,551.27,649.46,551.27Z" class="cls-20"></path><path d="M666.47,577.69s.06-8.64-2.27-12.05-7-5.7-8.91-4.73-2.61,7.09.67,10.6S666.47,577.69,666.47,577.69Z" class="cls-20"></path><path d="M680.16,560.4s-5.86-6.34-9.89-7.24-9,.64-9.75,2.64,3,7,7.74,7.28S680.16,560.4,680.16,560.4Z" class="cls-20"></path><path d="M712.22,532.82s-8-3.32-12-2.46-7.94,4.35-7.76,6.47,5.58,5.09,10.07,3.39S712.22,532.82,712.22,532.82Z" class="cls-20"></path><path d="M647.35,501.84s-1.65,8.47,0,12.26,5.85,6.9,7.89,6.3,3.87-6.49,1.3-10.54S647.35,501.84,647.35,501.84Z" class="cls-20"></path><path d="M674.69,351.6s.4,8.63,2.9,11.91,7.32,5.32,9.15,4.26,2.23-7.22-1.22-10.55S674.69,351.6,674.69,351.6Z" class="cls-20"></path><path d="M730.6,339.23c-1.67,5-2.37,10.34-4.09,15.39a78.52,78.52,0,0,1-6.85,14.51.25.25,0,0,0-.14,0c-3.69.68-8.25,2.4-10.95,5.08-.15.14.15.45.31.37,1.74-.75,3.31-1.87,5-2.72a38.21,38.21,0,0,1,5.37-2c-.11.17-.21.35-.31.52a99.76,99.76,0,0,1-10.76,14.13c-2.42,2.75-5.15,5.21-7.82,7.71A14.07,14.07,0,0,0,695,393.4s0,0,0-.08c-1.74-2.62-4.79-5.42-7.91-6.2-.34-.09-.19.38,0,.48,1.2.73,2.45,1.34,3.6,2.15a30.44,30.44,0,0,1,4,3.78l0,0a11.57,11.57,0,0,0-4.63,3.55c-.14.19.18.59.39.47,1.7-1,3.16-2.32,5-3.21a22,22,0,0,1,4-1.3,65.39,65.39,0,0,0-5.23,5.43c-.25.29.31.85.61.61a114.68,114.68,0,0,0,15.46-14.19,33.54,33.54,0,0,1,5.19,4.11c-2.69,2.82-5.3,7-5.65,10.89,0,.14.27.39.36.21.79-1.71,1.23-3.56,2-5.28a33.92,33.92,0,0,1,3.48-5.62,20.13,20.13,0,0,1,4.8,7.68c.16.45,1,.6.77,0-1.79-5.16-5.56-10-10.61-12.37a90.53,90.53,0,0,0,8.95-11.81c1.6-2.53,3.2-5.27,4.7-8.14a34.42,34.42,0,0,1,5.48,4.83c-2.69,3.66-3.94,9.17-2.31,13.52.05.14.49.4.47.11a32.74,32.74,0,0,1-.14-6.49,19,19,0,0,1,2.39-6.69h0c1.74,2.11,2.68,4.66,4.1,7,.16.27.81.47.72,0-.87-5.07-5.62-10.6-10.45-12.74,3.92-7.65,7-16.21,6.78-24.38C731.3,339.39,730.73,338.83,730.6,339.23Z" class="cls-20"></path><path d="M712.58,349.08a25.34,25.34,0,0,1,3.92,2.75,16.66,16.66,0,0,1,2.53,3.69,36.82,36.82,0,0,0-17.54,5,6.12,6.12,0,0,1,.2,1.36,57.3,57.3,0,0,1,9-4c-1.75,6-4.09,10.55-9.55,14.36-.31.22.31.86.64.64,4.94-3.28,9.46-9,9.46-15.15,4.79-1.4,9.38-1.23,14.3-1.29.22,0,0-.31-.11-.34a25.58,25.58,0,0,0-5.89-.61c-.73-3-4-6.45-7-7.07C712.16,348.35,712.37,348.93,712.58,349.08Z" class="cls-20"></path><path d="M703.49,371.68s-1.2,6.45-7.34,7.1a18.11,18.11,0,0,1-7-.74S694.6,367.7,703.49,371.68Z" class="cls-20"></path><path d="M732.58,372.3s-3.31,5.66.92,10.17a18.06,18.06,0,0,0,5.82,4S743.9,374.67,732.58,372.3Z" class="cls-20"></path><path d="M720,394.5s-4.07,2.44-3,6.77a13.15,13.15,0,0,0,2.29,4.59S726.34,399.94,720,394.5Z" class="cls-20"></path><path d="M704.16,359.56s-4.73-.28-6.26,3.93a13.16,13.16,0,0,0-.7,5.08S706.34,367.64,704.16,359.56Z" class="cls-20"></path><path d="M719.87,394.41s.31,5.74,5.58,7a16,16,0,0,0,6.21.16S729.31,390.69,719.87,394.41Z" class="cls-20"></path><path d="M703.49,359.56s-4.58,4.7-10,1.83a18.14,18.14,0,0,1-5.45-4.54S698.31,351.31,703.49,359.56Z" class="cls-20"></path><path d="M715.06,349.91s-4.68,3.75-8.88-.06a17.78,17.78,0,0,1-3.93-5.44S712,340.89,715.06,349.91Z" class="cls-20"></path><path d="M714.35,371.2s.15,5.38-4.85,6.32a16.07,16.07,0,0,1-6-.13S706.18,367.15,714.35,371.2Z" class="cls-20"></path><path d="M692.76,395s.15,5.37-4.85,6.32a16,16,0,0,1-6-.14S684.59,390.94,692.76,395Z" class="cls-20"></path><path d="M692,389.68s-3.61,2.46-6.46-.55A13,13,0,0,1,683,385S691.15,382.3,692,389.68Z" class="cls-20"></path><path d="M727.57,378.19s3.92,3.67,1.08,7.89a16.09,16.09,0,0,1-4.33,4.18S718.94,381.14,727.57,378.19Z" class="cls-20"></path><path d="M712.19,394.2s3.92,3.67,1.07,7.89a15.94,15.94,0,0,1-4.32,4.18S703.56,397.15,712.19,394.2Z" class="cls-20"></path><path d="M697.81,395.25s3.45,5.66-1.33,9.74a19.61,19.61,0,0,1-6.52,3.54S686.57,395.92,697.81,395.25Z" class="cls-20"></path></g></g></g></svg>